# xmcd CD database file
# Copyright (C) 1997 Ti Kan
# 
# Track frame offsets:
#     182
#     12205
#     29767
#     44457
#     59632
#     84732
#     103450
#     115997
#     130380
#     146785
#     163652
#     188347
#     201472
#     213307
#     227382
#     243010
#     261275
#     275505
#     289180
#     299085
#     312852
# 
# Disc length: 4552 seconds
# 
# Revision: 1
# Processed by: cddbd v1.4b41PL1 Copyright (c) Steve Scherf et al.
# Submitted via: DiscPlay 4.0.4
# 
DISCID=4d11c615
DTITLE=The Flying Burrito Brothers - The High Lonesome Sound Of The Flying B
DTITLE=urrito Brothers
DYEAR=1900
DGENRE=
TTITLE0=Close Up The Honky Tonks
TTITLE1=Dark End Of The Street
TTITLE2=Sweet Mental Revenge
TTITLE3=The Image Of Me
TTITLE4=Christine's Tune
TTITLE5=Sin City
TTITLE6=Man In A Fog
TTITLE7=Wake Up Little Susie
TTITLE8=You Win Again
TTITLE9=We've Got To Get Ourselves Together
TTITLE10=She Thinks I Still Care
TTITLE11=Sweet Dreams Baby
TTITLE12=Lucille
TTITLE13=Take A Message To Mary
TTITLE14=Train Song
TTITLE15=LAzy Day
TTITLE16=100 Years Ago
TTITLE17=My Uncle
TTITLE18=High Fashion Queen
TTITLE19=Cody Cody
TTITLE20=Wild Horses
EXTD=
EXTT0=
EXTT1=
EXTT2=
EXTT3=
EXTT4=
EXTT5=
EXTT6=
EXTT7=
EXTT8=
EXTT9=
EXTT10=
EXTT11=
EXTT12=
EXTT13=
EXTT14=
EXTT15=
EXTT16=
EXTT17=
EXTT18=
EXTT19=
EXTT20=
PLAYORDER=
